HIERARCHY
ROOT hips
{
  OFFSET 0 10.6860622 2.3727825e-15
  CHANNELS 6 Xposition Yposition Zposition Yrotation Xrotation Zrotation
  JOINT leftUpperLeg
  {
    OFFSET 0.6642549969 -0.9402397400000004 0
    CHANNELS 3 Yrotation Xrotation Zrotation
    JOINT leftLowerLeg
    {
      OFFSET 0 -3.997221335632195 0
      CHANNELS 3 Yrotation Xrotation Zrotation
      JOINT leftFoot
      {
        OFFSET -0.13777839790000004 -4.6145792000000005 -0.22186036399999998
        CHANNELS 3 Yrotation Xrotation Zrotation
        JOINT leftToes
        {
          OFFSET -0.03777410834999995 -0.9130806927000008 0.85230013
          CHANNELS 3 Yrotation Xrotation Zrotation
          End Site
          {
            OFFSET -0.03777410834999995 -0.9130806927000008 0.85230013
          }
        }
      }
    }
  }
  JOINT rightUpperLeg
  {
    OFFSET -0.6642778626 -0.9402397400000004 0
    CHANNELS 3 Yrotation Xrotation Zrotation
    JOINT rightLowerLeg
    {
      OFFSET 0 -3.997221452859387 0
      CHANNELS 3 Yrotation Xrotation Zrotation
      JOINT rightFoot
      {
        OFFSET 0.1377926176 -4.6145792000000005 -0.22185782299999995
        CHANNELS 3 Yrotation Xrotation Zrotation
        JOINT rightToes
        {
          OFFSET 0.037780746850000047 -0.9130806927000008 0.85230167
          CHANNELS 3 Yrotation Xrotation Zrotation
          End Site
          {
            OFFSET 0.037780746850000047 -0.9130806927000008 0.85230167
          }
        }
      }
    }
  }
  JOINT spine
  {
    OFFSET 0 0.13988381660000015 0
    CHANNELS 3 Yrotation Xrotation Zrotation
    JOINT chest
    {
      OFFSET 0 0.6191039003973773 0
      CHANNELS 3 Yrotation Xrotation Zrotation
      JOINT upperChest
      {
        OFFSET 0 0.9855186130586943 0
        CHANNELS 3 Yrotation Xrotation Zrotation
        JOINT leftShoulder
        {
          OFFSET 0.1807663869 1.5087829790000005 0
          CHANNELS 3 Yrotation Xrotation Zrotation
          JOINT leftUpperArm
          {
            OFFSET 0.5985063006419806 0 0
            CHANNELS 3 Yrotation Xrotation Zrotation
            JOINT leftLowerArm
            {
              OFFSET 2.2993332369501065 0 0
              CHANNELS 3 Yrotation Xrotation Zrotation
              JOINT leftHand
              {
                OFFSET 2.395047042602395 0 0
                CHANNELS 3 Yrotation Xrotation Zrotation
                JOINT leftIndexProximal
                {
                  OFFSET 0.5766295810000004 0.04556643899499946 0.17265095988184
                  CHANNELS 3 Yrotation Xrotation Zrotation
                  JOINT leftIndexIntermediate
                  {
                    OFFSET 0.2957229000000008 -0.019352197700001517 -0.007932640616999987
                    CHANNELS 3 Yrotation Xrotation Zrotation
                    JOINT leftIndexDistal
                    {
                      OFFSET 0.19008243099999922 -0.012484908149998475 -0.002786250786000012
                      CHANNELS 3 Yrotation Xrotation Zrotation
                      End Site
                      {
                        OFFSET 0.19008243099999922 -0.012484908149998475 -0.002786250786000012
                      }
                    }
                  }
                }
                JOINT leftMiddleProximal
                {
                  OFFSET 0.5834975091000001 0.0524350405149987 0.02204081888183999
                  CHANNELS 3 Yrotation Xrotation Zrotation
                  JOINT leftMiddleIntermediate
                  {
                    OFFSET 0.33880573540000003 -0.019871473270000717 -0.00000971183179999946
                    CHANNELS 3 Yrotation Xrotation Zrotation
                    JOINT leftMiddleDistal
                    {
                      OFFSET 0.20676022730000088 -0.012221336379999448 0.0001471936708000235
                      CHANNELS 3 Yrotation Xrotation Zrotation
                      End Site
                      {
                        OFFSET 0.20676022730000088 -0.012221336379999448 0.0001471936708000235
                      }
                    }
                  }
                }
                JOINT leftLittleProximal
                {
                  OFFSET 0.5344154683999995 -0.012880921405001189 -0.24414037221816004
                  CHANNELS 3 Yrotation Xrotation Zrotation
                  JOINT leftLittleIntermediate
                  {
                    OFFSET 0.21758961730000093 -0.011650919939999227 0.011893592810000034
                    CHANNELS 3 Yrotation Xrotation Zrotation
                    JOINT leftLittleDistal
                    {
                      OFFSET 0.1475273964999999 -0.008152365682999818 0.006001092492999946
                      CHANNELS 3 Yrotation Xrotation Zrotation
                      End Site
                      {
                        OFFSET 0.1475273964999999 -0.008152365682999818 0.006001092492999946
                      }
                    }
                  }
                }
                JOINT leftRingProximal
                {
                  OFFSET 0.5799399463000003 0.026911854694997794 -0.12150566991816003
                  CHANNELS 3 Yrotation Xrotation Zrotation
                  JOINT leftRingIntermediate
                  {
                    OFFSET 0.26167887460000006 -0.013480186499999602 0.010996293000000053
                    CHANNELS 3 Yrotation Xrotation Zrotation
                    JOINT leftRingDistal
                    {
                      OFFSET 0.17667108799999987 -0.008990287899999228 0.0055541023999999065
                      CHANNELS 3 Yrotation Xrotation Zrotation
                      End Site
                      {
                        OFFSET 0.17667108799999987 -0.008990287899999228 0.0055541023999999065
                      }
                    }
                  }
                }
                JOINT leftThumbProximal
                {
                  OFFSET 0.11018806699999972 -0.09448718900500053 0.17047963138184
                  CHANNELS 3 Yrotation Xrotation Zrotation
                  JOINT leftThumbIntermediate
                  {
                    OFFSET 0.31062601459999983 -0.08126270900000132 0.15443142000000007
                    CHANNELS 3 Yrotation Xrotation Zrotation
                    JOINT leftThumbDistal
                    {
                      OFFSET 0.21627175790000086 -0.08833193599999878 0.018771167799999988
                      CHANNELS 3 Yrotation Xrotation Zrotation
                      End Site
                      {
                        OFFSET 0.21627175790000086 -0.08833193599999878 0.018771167799999988
                      }
                    }
                  }
                }
              }
            }
          }
        }
        JOINT neck
        {
          OFFSET 0 1.5463305265074576 0
          CHANNELS 3 Yrotation Xrotation Zrotation
          JOINT head
          {
            OFFSET 0 0.8456443600000344 0
            CHANNELS 3 Yrotation Xrotation Zrotation
            JOINT leftEye
            {
              OFFSET 0.30408573140000006 0.5104519199999995 0.1276382305
              CHANNELS 3 Yrotation Xrotation Zrotation
              End Site
              {
                OFFSET 0.30408573140000006 0.5104519199999995 0.1276382305
              }
            }
            JOINT rightEye
            {
              OFFSET -0.30409491089999996 0.5104519199999995 0.1276379445
              CHANNELS 3 Yrotation Xrotation Zrotation
              End Site
              {
                OFFSET -0.30409491089999996 0.5104519199999995 0.1276379445
              }
            }
            JOINT jaw
            {
              OFFSET -3.155239131000001e-7 -0.11984121820000082 0.60178107
              CHANNELS 3 Yrotation Xrotation Zrotation
              End Site
              {
                OFFSET -3.155239131000001e-7 -0.11984121820000082 0.60178107
              }
            }
          }
        }
        JOINT rightShoulder
        {
          OFFSET -0.1807303465 1.5087829790000005 0
          CHANNELS 3 Yrotation Xrotation Zrotation
          JOINT rightUpperArm
          {
            OFFSET -0.5985063796536958 0 0
            CHANNELS 3 Yrotation Xrotation Zrotation
            JOINT rightLowerArm
            {
              OFFSET -2.2993322059002854 0 0
              CHANNELS 3 Yrotation Xrotation Zrotation
              JOINT rightHand
              {
                OFFSET -2.395045314457259 0 0
                CHANNELS 3 Yrotation Xrotation Zrotation
                JOINT rightIndexProximal
                {
                  OFFSET -0.5764487688300002 0.0441371204405987 0.17361932004999997
                  CHANNELS 3 Yrotation Xrotation Zrotation
                  JOINT rightIndexIntermediate
                  {
                    OFFSET -0.29573011380000047 -0.01934826376999843 -0.007698921482999974
                    CHANNELS 3 Yrotation Xrotation Zrotation
                    JOINT rightIndexDistal
                    {
                      OFFSET -0.19008373999999884 -0.012503266380000655 -0.0026365778999999897
                      CHANNELS 3 Yrotation Xrotation Zrotation
                      End Site
                      {
                        OFFSET -0.19008373999999884 -0.012503266380000655 -0.0026365778999999897
                      }
                    }
                  }
                }
                JOINT rightMiddleProximal
                {
                  OFFSET -0.5834852037300005 0.05211639405060153 0.02307162440000001
                  CHANNELS 3 Yrotation Xrotation Zrotation
                  JOINT rightMiddleIntermediate
                  {
                    OFFSET -0.33880114510000003 -0.019952774050000954 0.0002455003561999819
                    CHANNELS 3 Yrotation Xrotation Zrotation
                    JOINT rightMiddleDistal
                    {
                      OFFSET -0.20675694929999955 -0.012273788999999091 0.00030209124000002766
                      CHANNELS 3 Yrotation Xrotation Zrotation
                      End Site
                      {
                        OFFSET -0.20675694929999955 -0.012273788999999091 0.00030209124000002766
                      }
                    }
                  }
                }
                JOINT rightLittleProximal
                {
                  OFFSET -0.5346811737299992 -0.011214256288399227 -0.24363941305000003
                  CHANNELS 3 Yrotation Xrotation Zrotation
                  JOINT rightLittleIntermediate
                  {
                    OFFSET -0.21757715980000092 -0.011771559690000988 0.01201554387
                    CHANNELS 3 Yrotation Xrotation Zrotation
                    JOINT rightLittleDistal
                    {
                      OFFSET -0.1475201849000004 -0.00822055339600003 0.006082065407000015
                      CHANNELS 3 Yrotation Xrotation Zrotation
                      End Site
                      {
                        OFFSET -0.1475201849000004 -0.00822055339600003 0.006082065407000015
                      }
                    }
                  }
                }
                JOINT rightRingProximal
                {
                  OFFSET -0.5800810755299999 0.027657985680600072 -0.12066365025000003
                  CHANNELS 3 Yrotation Xrotation Zrotation
                  JOINT rightRingIntermediate
                  {
                    OFFSET -0.26166445029999974 -0.013623118409999302 0.011164098990000045
                    CHANNELS 3 Yrotation Xrotation Zrotation
                    JOINT rightRingDistal
                    {
                      OFFSET -0.17666387530000027 -0.009072900100000503 0.005668185599999959
                      CHANNELS 3 Yrotation Xrotation Zrotation
                      End Site
                      {
                        OFFSET -0.17666387530000027 -0.009072900100000503 0.005668185599999959
                      }
                    }
                  }
                }
                JOINT rightThumbProximal
                {
                  OFFSET -0.10997596379000074 -0.09577489355940072 0.16989765924999997
                  CHANNELS 3 Yrotation Xrotation Zrotation
                  JOINT rightThumbIntermediate
                  {
                    OFFSET -0.31036620999999986 -0.08229339117999834 0.15440884469999996
                    CHANNELS 3 Yrotation Xrotation Zrotation
                    JOINT rightThumbDistal
                    {
                      OFFSET -0.21631306399999906 -0.08825326400000111 0.018656797720000014
                      CHANNELS 3 Yrotation Xrotation Zrotation
                      End Site
                      {
                        OFFSET -0.21631306399999906 -0.08825326400000111 0.018656797720000014
                      }
                    }
                  }
                }
              }
            }
          }
        }
      }
    }
  }
}
MOTION
Frames: 8
Frame Time: 0.03333333333333333
0 11.682712981546562 0 0 0 0 0 0 -5.826343164929014 -0.3712483961610101 -3.6333298826370974 5.838118207697276 0 0 0 0 0 0 0 0 5.826343164929014 0.3712483961610101 -3.6333298826370974 -5.838118207697276 0 0 0 0 0 0 0 -4.610651315171937 0 0 3.0831277533083026 0 0 0 0 0 1.5275236235667615 0 0 0 0 0 0 0 0 0 0 0 0 0 0 0 0 0 0 0 0 0 0 0 0 0 0 0 0 0 0 0 0 0 0 0 0 0 0 0 0 0 0 0 0 0 0 0 0 0 0 0 0 0 0 0 0 1.5275236235667615 0 0 0 0 0 0 0 0 0 0 0 0 0 0 1.5275236235667615 0 0 0 0 0 0 0 0 0 0 0 0 0 0 0 0 0 0 0 0 0 0 0 0 0 0 0 0 0 0 0 0 0 0 0 0 0 0 0 0 0 0 0 0 0 0 0 0 0 0 0 0 0 0 0
0.22170140982831507 -4.8346597554753235 -0.33295215342285434 0 28.993402433365766 0 12.286841457395385 -35.57416603132229 -0.9258348891231623 92.57595240130101 84.71442603165289 94.28078721177921 17.512543419857394 58.768686873480405 0.15861230783133143 0 0 0 -12.3944893904853 -35.64101677427216 0.8699788243139681 -92.6686340258927 84.80178385805583 -94.4941626491174 -17.73568152228322 59.997826290093826 -0.42525054731645595 0 0 0 -0.910227876164742 -19.777039383448983 0.20697380149614178 -2.576570079202145 26.33337125331246 -2.766003778916551 0 0 0 -15.011374399824758 -8.340971283865953 -11.56663097606732 -17.40610298452747 -19.623229997953352 -46.96832527138684 -69.42170935250817 -12.976973082036809 -45.17499072228373 -7.573501436398988 4.7648070085417435 58.40290361431252 0 0 0 0 0 0 0 0 0 0 0 0 0 0 0 0 0 0 0 0 0 0 0 0 0 0 0 0 0 0 0 0 0 0 0 0 0 0 0 0 0 0 0 0 0 0 -17.47709077807991 0 0 0.358449011672738 0 0 0 0 0 0 0 0 0 0 16.048705046318123 -8.49398775610283 5.504011975763014 18.865671794025 -21.077346006932032 46.45786748947466 69.41777652863136 -12.973022552268409 45.17212326606443 8.27837592732709 3.3808501843262913 -48.479212542974594 0 0 0 0 0 0 0 0 0 0 0 0 0 0 0 0 0 0 0 0 0 0 0 0 0 0 0 0 0 0 0 0 0 0 0 0 0 0 0 0 0 0 0 0 0
0.22170140982831507 -4.8346597554753235 -0.28816446154092407 0 28.993402433365766 0 12.248212892116332 -35.109040436295345 -0.835660765420094 87.88358155705876 84.72399932672582 89.56820263611466 17.512547383842506 58.7686934600412 0.15861495575740164 0 0 0 -12.358108773871406 -35.17622543810446 0.7797230050247115 -87.93160716049849 84.81499333681055 -89.73874634854995 -17.735686723580997 59.997833119834915 -0.42525542404874794 0 0 0 -0.910227876164742 -19.777043012604103 0.20697385820132005 -2.591618555403451 26.998287970511008 -2.799521347892535 0 0 0 -15.01137273291647 -8.340972146767102 -11.56663097606732 -17.148443472310596 -19.39434803364302 -47.105469586502814 -69.42170935250817 -12.976973082036809 -45.17499072228373 -7.675744675497173 5.482105544939854 57.801425724497065 0 0 0 0 0 0 0 0 0 0 0 0 0 0 0 0 0 0 0 0 0 0 0 0 0 0 0 0 0 0 0 0 0 0 0 0 0 0 0 0 0 0 0 0 0 0 -17.47709077807991 0 0 0.4314779870940287 0 0 0 0 0 0 0 0 0 0 15.815035262142377 -8.495702159007509 5.892587475246062 18.561602086449334 -20.811229547741817 46.617182391814886 69.41777652863136 -12.973022552268409 45.17212326606443 8.560212412788204 4.011134615078765 -48.17405917042723 0 0 0 0 0 0 0 0 0 0 0 0 0 0 0 0 0 0 0 0 0 0 0 0 0 0 0 0 0 0 0 0 0 0 0 0 0 0 0 0 0 0 0 0 0
0.22170140982831507 -4.8346597554753235 -0.24337703805126518 0 28.993402433365766 0 12.210683368444434 -34.64374003976066 -0.7463543890222443 83.20467566914107 84.69810228817434 84.86907909079828 17.512549701137853 58.768686873480405 0.1586150865258406 0 0 0 -12.322814145500269 -34.71125560582524 0.6903131619354275 -83.20180114531492 84.79259473255759 -84.99054733912645 -17.73568152228322 59.997826290093826 -0.42525054731645595 0 0 0 -0.910227876164742 -19.777039383448983 0.20697380149614178 -2.6072049922190694 27.663546749423755 -2.8334555304365603 0 0 0 -15.011374399824758 -8.340971283865953 -11.56663097606732 -16.891692846677003 -19.164852900934086 -47.24134736875104 -69.42170771201721 -12.976973958186987 -45.174993207967745 -7.785809267164668 6.199059984071389 57.197227653729165 0 0 0 0 0 0 0 0 0 0 0 0 0 0 0 0 0 0 0 0 0 0 0 0 0 0 0 0 0 0 0 0 0 0 0 0 0 0 0 0 0 0 0 0 0 0 -17.47709077807991 0 0 0.5045129998049772 0 0 0 0 0 0 0 0 0 0 15.581301999729916 -8.49584977411739 6.2812516727569845 18.2588027910475 -20.54426911711657 46.7747244975852 69.41777652863136 -12.973022552268409 45.17212326606443 8.845838036215024 4.6403278105935994 -47.86531014211371 0 0 0 0 0 0 0 0 0 0 0 0 0 0 0 0 0 0 0 0 0 0 0 0 0 0 0 0 0 0 0 0 0 0 0 0 0 0 0 0 0 0 0 0 0
0.2217011414360438 -4.8346597554753235 -0.19858934616933488 0 28.993402433365766 0 12.174225887603788 -34.17828276289425 -0.6578890299669914 78.60085674803119 84.63721075632749 80.24503670309403 17.512547383842506 58.7686934600412 0.15861495575740164 0 0 0 -12.288582491490569 -34.24612949937671 0.6017259298642159 -78.54307922399754 84.7350784568665 -80.3134283857999 -17.735686723580997 59.997833119834915 -0.42525542404874794 0 0 0 -0.910227876164742 -19.777039383448983 0.20697380149614178 -2.6233451416841604 28.32912210611759 -2.867824719466101 0 0 0 -15.011374399824758 -8.340972146767102 -11.566631821444844 -16.63583994789793 -18.93475974453425 -47.3759623418483 -69.42170935250817 -12.976973082036809 -45.17499072228373 -7.903754625991971 6.915490806195874 56.59020962636606 0 0 0 0 0 0 0 0 0 0 0 0 0 0 0 0 0 0 0 0 0 0 0 0 0 0 0 0 0 0 0 0 0 0 0 0 0 0 0 0 0 0 0 0 0 0 -17.477092568267445 0 0 0.5775539818956882 0 0 0 0 0 0 0 0 0 0 15.347531974773721 -8.49442800989405 6.669988358843957 17.95726015662427 -20.276497962086466 46.93052788851544 69.41778144989934 -12.973024304540933 45.17212822221724 9.135314754758344 5.268351697997209 -47.5529660437743 0 0 0 0 0 0 0 0 0 0 0 0 0 0 0 0 0 0 0 0 0 0 0 0 0 0 0 0 0 0 0 0 0 0 0 0 0 0 0 0 0 0 0 0 0
0.2217011414360438 -4.8346597554753235 -0.15380165428740467 0 28.993402433365766 0 12.138827671716559 -33.71267768700161 -0.57024723726574 74.12788920080631 84.54249254337891 75.75184287176118 17.51254184953721 58.768686873480405 0.15861071265485363 0 0 0 -12.255401273806719 -33.780864507091806 0.5139411744627888 -74.01377486568397 84.64353590133697 -75.76572244858308 -17.735678401505968 59.99781946035416 -0.42524630819050613 0 0 0 -0.910227876164742 -19.777039383448983 0.20697380149614178 -2.640050927121085 28.99495444922175 -2.902639988909838 0 0 0 -15.011374399824758 -8.340971283865953 -11.566629285312256 -16.380883264111603 -18.704076357722688 -47.50932065887258 -69.42170935250817 -12.976973958186987 -45.17498825173692 -8.029643674136002 7.6312125620105675 55.98024133227113 0 0 0 0 0 0 0 0 0 0 0 0 0 0 0 0 0 0 0 0 0 0 0 0 0 0 0 0 0 0 0 0 0 0 0 0 0 0 0 0 0 0 0 0 0 0 -17.47709077807991 0 0 0.650601025602983 0 0 0 0 0 0 0 0 0 0 15.11373672344412 -8.491437747021555 7.058776454050806 17.65697081361612 -20.00791628503206 47.08456673810763 69.41777652863136 -12.973022552268409 45.17212326606443 9.428688804456383 5.895099981225217 -47.23692055936335 0 0 0 0 0 0 0 0 0 0 0 0 0 0 0 0 0 0 0 0 0 0 0 0 0 0 0 0 0 0 0 0 0 0 0 0 0 0 0 0 0 0 0 0 0
0.2217011414360438 -4.8346597554753235 -0.1090139624054744 0 28.993402433365766 0 12.104463570721133 -33.24695797127857 -0.48339980166559465 69.83250213051902 84.4155931897694 71.4362245650324 17.512543419857394 58.768686873480405 0.15861230783133143 0 0 0 -12.223246078373672 -33.31548967583247 0.42693465064783304 -69.66246871029308 84.51963114946126 -71.39601086685121 -17.73568152228322 59.997826290093826 -0.4252515344002011 0 0 0 -0.910227876164742 -19.777039383448983 0.20697380149614178 -2.657336185104059 29.66100786301619 -2.9379176200749524 0 0 0 -15.011374399824758 -8.340971283865953 -11.56663097606732 -16.12681746829067 -18.47281403553014 -47.64142842650787 -69.42170935250817 -12.976973958186987 -45.17498825173692 -8.163541200198578 8.346043449735063 55.3672091013575 0 0 0 0 0 0 0 0 0 0 0 0 0 0 0 0 0 0 0 0 0 0 0 0 0 0 0 0 0 0 0 0 0 0 0 0 0 0 0 0 0 0 0 0 0 0 -17.47709077807991 0 0 0.7236539830830396 0 0 0 0 0 0 0 0 0 0 14.879942017970544 -8.486878158932717 7.447599082402992 17.35792302768682 -19.738569536795513 47.23688539094022 69.41777652863136 -12.973022552268409 45.17212326606443 9.726014983197334 6.520489866874132 -46.91714032279247 0 0 0 0 0 0 0 0 0 0 0 0 0 0 0 0 0 0 0 0 0 0 0 0 0 0 0 0 0 0 0 0 0 0 0 0 0 0 0 0 0 0 0 0 0
0.2217011414360438 -4.8346597554753235 -0.06422627052354417 0 28.993402433365766 0 12.071118930862127 -32.78112741988831 -0.3973342746805662 65.74967064141828 84.25874158375893 67.3331526199306 17.512543419857394 58.768686873480405 0.15861230783133143 0 0 0 -12.19209433425613 -32.85000476446533 0.34068615321680384 -65.52600398195293 84.36549203970597 -67.24113757864971 -17.73568152228322 59.997826290093826 -0.42525054731645595 0 0 0 -0.910227876164742 -19.777039383448983 0.20697380149614178 -2.675218437858112 30.327221350820945 -2.9736760640267885 0 0 0 -15.011374399824758 -8.340971283865953 -11.56663097606732 -15.873635790140831 -18.240982158121106 -47.77228129901807 -69.42170935250817 -12.976975710487356 -45.17498825173692 -8.305509790611902 9.059795539160488 54.75097807231132 0 0 0 0 0 0 0 0 0 0 0 0 0 0 0 0 0 0 0 0 0 0 0 0 0 0 0 0 0 0 0 0 0 0 0 0 0 0 0 0 0 0 0 0 0 0 -17.47709077807991 0 0 0.7967129733695151 0 0 0 0 0 0 0 0 0 0 14.646161065867124 -8.48075016472559 7.836435601341969 17.06010875653352 -19.468439370371684 47.38745525993901 69.41777652863136 -12.973022552268409 45.17212326606443 10.027347042707738 7.144420358240275 -46.59356036068326 0 0 0 0 0 0 0 0 0 0 0 0 0 0 0 0 0 0 0 0 0 0 0 0 0 0 0 0 0 0 0 0 0 0 0 0 0 0 0 0 0 0 0 0 0
